<svg width="197" height="85" viewBox="0 0 197 85" fill="none" xmlns="http://www.w3.org/2000/svg">
<rect y="24.5" width="55" height="55" rx="4" fill="#35B8BE"/>
<g clip-path="url(#clip0_3931_1339)">
<g opacity="0.2">
<path fill-rule="evenodd" clip-rule="evenodd" d="M-2.569 -32.5479C3.308 -28.8019 4.338 -20.9661 6.793 -14.4561C9.077 -8.40014 11.393 -2.50106 11.199 3.95694C10.975 11.5649 11.71 20.9459 5.61801 25.4989C-0.517992 30.0869 -9.18197 24.626 -16.857 24.933C-23.801 25.209 -31.305 31.1051 -37.064 27.2011C-42.884 23.2531 -40.105 13.9789 -42.654 7.43692C-45.005 1.40392 -51.944 -2.9821 -51.331 -9.4161C-50.709 -15.9461 -44.589 -20.3353 -39.604 -24.5973C-34.738 -28.7553 -29.391 -32.179 -23.122 -33.524C-16.255 -34.999 -8.503 -36.3289 -2.569 -32.5479Z" stroke="white"/>
<path fill-rule="evenodd" clip-rule="evenodd" d="M1.05813 -40.1131C8.36613 -35.4551 9.64912 -25.7132 12.7041 -17.6272C15.5471 -10.0972 18.4241 -2.76803 18.1911 5.26097C17.9161 14.712 18.8341 26.3691 11.2621 32.0271C3.63511 37.7271 -7.13787 30.9348 -16.6789 31.3088C-25.3119 31.6508 -34.6379 38.9749 -41.7999 34.1199C-49.0379 29.2129 -45.5869 17.6878 -48.7589 9.55784C-51.6839 2.05784 -60.3129 -3.39496 -59.5589 -11.388C-58.7889 -19.501 -51.1819 -24.9548 -44.9869 -30.2478C-38.9399 -35.4128 -32.2939 -39.6662 -24.4999 -41.3352C-15.9589 -43.1662 -6.32187 -44.8171 1.05813 -40.1131Z" stroke="white"/>
<path fill-rule="evenodd" clip-rule="evenodd" d="M4.43002 -47.1342C13.067 -41.6342 14.587 -30.1263 18.199 -20.5673C21.56 -11.6733 24.962 -3.01317 24.688 6.46883C24.366 17.6338 25.454 31.409 16.508 38.088C7.49703 44.818 -5.236 36.7929 -16.509 37.2359C-26.709 37.6359 -37.728 46.284 -46.192 40.545C-54.746 34.745 -50.671 21.1349 -54.422 11.5299C-57.88 2.67087 -68.078 -3.77618 -67.184 -13.2182C-66.277 -22.8052 -57.289 -29.246 -49.97 -35.495C-42.826 -41.595 -34.97 -46.6173 -25.765 -48.5883C-15.683 -50.7443 -4.29598 -52.6912 4.43002 -47.1342Z" stroke="white"/>
<path fill-rule="evenodd" clip-rule="evenodd" d="M7.92202 -54.427C17.938 -48.045 19.703 -34.7058 23.894 -23.6268C27.794 -13.3158 31.739 -3.27361 31.424 7.72139C31.055 20.6684 32.324 36.6371 21.946 44.3801C11.498 52.1801 -3.26999 42.8731 -16.343 43.3801C-28.173 43.8401 -40.948 53.8681 -50.764 47.2121C-60.684 40.4871 -55.964 24.706 -60.313 13.569C-64.325 3.29805 -76.153 -4.17866 -75.113 -15.1307C-74.063 -26.2427 -63.641 -33.7109 -55.155 -40.9549C-46.871 -48.0249 -37.767 -53.8467 -27.088 -56.1287C-15.397 -58.6167 -2.19298 -60.874 7.92202 -54.427Z" stroke="white"/>
<path fill-rule="evenodd" clip-rule="evenodd" d="M12.196 -63.3416C23.896 -55.8826 25.963 -40.3017 30.86 -27.3567C35.418 -15.3107 40.03 -3.58202 39.66 9.25998C39.23 24.381 40.71 43.0343 28.592 52.0793C16.392 61.1863 -0.865977 50.313 -16.138 50.906C-29.959 51.442 -44.882 63.1502 -56.351 55.3762C-67.942 47.5192 -62.428 29.0864 -67.513 16.0764C-72.202 4.07639 -86.021 -4.65461 -84.813 -17.4446C-83.588 -30.4236 -71.413 -39.1448 -61.502 -47.6038C-51.826 -55.8618 -41.191 -62.658 -28.715 -65.324C-15.047 -68.24 0.379037 -70.8716 12.196 -63.3416Z" stroke="white"/>
<path fill-rule="evenodd" clip-rule="evenodd" d="M16.859 -73.0646C30.402 -64.4366 32.793 -46.4079 38.459 -31.4299C43.734 -17.4919 49.073 -3.91968 48.652 10.9373C48.152 28.4323 49.871 50.012 35.852 60.472C21.732 71.008 1.76502 58.4252 -15.907 59.1112C-31.899 59.7282 -49.165 73.2742 -62.437 64.2772C-75.85 55.1862 -69.473 33.8609 -75.359 18.8069C-80.787 4.92595 -96.778 -5.18177 -95.384 -19.9758C-93.968 -34.9948 -79.884 -45.0759 -68.415 -54.8669C-57.215 -64.4189 -44.915 -72.281 -30.479 -75.361C-14.666 -78.737 3.18301 -81.7796 16.859 -73.0646Z" stroke="white"/>
<path fill-rule="evenodd" clip-rule="evenodd" d="M21.3921 -82.5211C36.7241 -72.7511 39.4321 -52.3452 45.8511 -35.3912C51.8251 -19.6152 57.8701 -4.25214 57.3951 12.5659C56.8351 32.3659 58.7781 56.7932 42.9111 68.6332C26.9271 80.5562 4.32311 66.3099 -15.6819 67.0829C-33.7819 67.7829 -53.3289 83.1112 -68.3539 72.9272C-83.5389 62.6342 -76.3219 38.4969 -82.9869 21.4579C-89.1329 5.74695 -107.236 -5.69596 -105.66 -22.442C-104.06 -39.442 -88.1169 -50.8527 -75.1349 -61.9297C-62.4629 -72.7417 -48.5349 -81.6391 -32.1929 -85.1241C-14.2949 -88.9421 5.91008 -92.3861 21.3921 -82.5211Z" stroke="white"/>
<path fill-rule="evenodd" clip-rule="evenodd" d="M25.537 -91.1657C42.505 -80.3557 45.503 -57.7758 52.608 -39.0178C59.219 -21.5598 65.908 -4.56188 65.385 14.0481C64.767 35.9581 66.919 62.9892 49.361 76.0882C31.673 89.2822 6.661 73.5174 -15.48 74.3714C-35.513 75.1414 -57.139 92.1043 -73.767 80.8323C-90.567 69.4403 -82.587 42.7321 -89.967 23.8801C-96.767 6.49215 -116.804 -6.16993 -115.06 -24.6999C-113.29 -43.5089 -95.649 -56.1368 -81.283 -68.3928C-67.261 -80.3548 -51.848 -90.193 -33.765 -94.053C-13.956 -98.274 8.4 -102.082 25.537 -91.1657Z" stroke="white"/>
<path fill-rule="evenodd" clip-rule="evenodd" d="M29.9411 -100.349C48.6471 -88.4302 51.9531 -63.5429 59.7871 -42.8619C67.0771 -23.6159 74.4531 -4.87889 73.8751 15.6381C73.1961 39.7861 75.5751 69.582 56.2141 84.02C36.7141 98.562 9.14108 81.1841 -15.2629 82.1201C-37.3469 82.9711 -61.1849 101.665 -79.5169 89.2392C-98.0429 76.6812 -89.2429 47.2389 -97.3759 26.4609C-104.876 7.29588 -126.962 -6.66294 -125.041 -27.0889C-123.091 -47.8229 -103.641 -61.741 -87.8089 -75.251C-72.3519 -88.437 -55.3619 -99.2858 -35.4279 -103.534C-13.5939 -108.187 11.0531 -112.385 29.9411 -100.349Z" stroke="white"/>
<path fill-rule="evenodd" clip-rule="evenodd" d="M34.731 -110.343C55.331 -97.2166 58.971 -69.8178 67.597 -47.0428C75.624 -25.8558 83.747 -5.22488 83.113 17.3571C82.366 43.9461 84.9821 76.7512 63.6711 92.6462C42.2051 108.656 11.84 89.5224 -15.029 90.5534C-39.345 91.4864 -65.592 112.069 -85.776 98.3864C-106.176 84.5604 -96.487 52.1503 -105.443 29.2663C-113.702 8.1663 -138.021 -7.20764 -135.907 -29.6946C-133.761 -52.5196 -112.35 -67.8436 -94.915 -82.7156C-77.897 -97.2326 -59.191 -109.175 -37.242 -113.853C-13.204 -118.976 13.931 -123.599 34.731 -110.343Z" stroke="white"/>
</g>
</g>
<g clip-path="url(#clip1_3931_1339)">
<path d="M19.6059 45.5H17V43.5H21.3941L21.8429 47.5H33V53.4384L20.7694 55.8694L19.6059 45.5ZM32.5 60.5C31.6716 60.5 31 59.8284 31 59C31 58.1716 31.6716 57.5 32.5 57.5C33.3284 57.5 34 58.1716 34 59C34 59.8284 33.3284 60.5 32.5 60.5ZM22.5 60.5C21.6716 60.5 21 59.8284 21 59C21 58.1716 21.6716 57.5 22.5 57.5C23.3284 57.5 24 58.1716 24 59C24 59.8284 23.3284 60.5 22.5 60.5Z" fill="white"/>
</g>
<g filter="url(#filter0_d_3931_1339)">
<rect x="36" y="18.5" width="25" height="25" rx="12.5" fill="white" shape-rendering="crispEdges"/>
<path d="M48.5905 36.2077C47.7964 36.2047 47.1132 36.0092 46.5407 35.6214C45.9714 35.2337 45.5328 34.672 45.225 33.9364C44.9204 33.2009 44.7696 32.3161 44.7726 31.282C44.7726 30.2509 44.925 29.3723 45.2297 28.646C45.5374 27.9196 45.976 27.3672 46.5454 26.9886C47.1178 26.607 47.7995 26.4162 48.5905 26.4162C49.3814 26.4162 50.0616 26.607 50.6309 26.9886C51.2034 27.3703 51.6435 27.9242 51.9513 28.6506C52.259 29.3738 52.4114 30.2509 52.4083 31.282C52.4083 32.3191 52.2544 33.2055 51.9466 33.9411C51.6419 34.6766 51.2049 35.2383 50.6356 35.6261C50.0662 36.0138 49.3845 36.2077 48.5905 36.2077ZM48.5905 34.5504C49.1321 34.5504 49.5645 34.2781 49.8877 33.7333C50.2108 33.1886 50.3709 32.3714 50.3678 31.282C50.3678 30.5649 50.2939 29.9678 50.1462 29.4908C50.0016 29.0137 49.7954 28.6552 49.5276 28.4151C49.2629 28.1751 48.9505 28.055 48.5905 28.055C48.0519 28.055 47.621 28.3243 47.2978 28.8629C46.9747 29.4015 46.8116 30.2079 46.8085 31.282C46.8085 32.0083 46.8808 32.6146 47.0255 33.1009C47.1732 33.584 47.3809 33.9472 47.6487 34.1903C47.9165 34.4304 48.2304 34.5504 48.5905 34.5504Z" fill="#35B8BE"/>
</g>
<defs>
<filter id="filter0_d_3931_1339" x="18" y="0.5" width="75" height="75" filterUnits="userSpaceOnUse" color-interpolation-filters="sRGB">
<feFlood flood-opacity="0" result="BackgroundImageFix"/>
<feColorMatrix in="SourceAlpha" type="matrix" values="0 0 0 0 0 0 0 0 0 0 0 0 0 0 0 0 0 0 127 0" result="hardAlpha"/>
<feOffset dx="7" dy="7"/>
<feGaussianBlur stdDeviation="12.5"/>
<feComposite in2="hardAlpha" operator="out"/>
<feColorMatrix type="matrix" values="0 0 0 0 0.494118 0 0 0 0 0.509804 0 0 0 0 0.560784 0 0 0 0.27 0"/>
<feBlend mode="normal" in2="BackgroundImageFix" result="effect1_dropShadow_3931_1339"/>
<feBlend mode="normal" in="SourceGraphic" in2="effect1_dropShadow_3931_1339" result="shape"/>
</filter>
<clipPath id="clip0_3931_1339">
<rect width="197" height="60" fill="white" transform="translate(0 24.5)"/>
</clipPath>
<clipPath id="clip1_3931_1339">
<rect width="25" height="17" fill="white" transform="translate(13 43.5)"/>
</clipPath>
</defs>
</svg>
