<svg width="701" height="641" viewBox="0 0 701 641" fill="none" xmlns="http://www.w3.org/2000/svg">
<rect width="699.641" height="640" transform="translate(0.640625 0.234375)" fill="#35B8BE"/>
<g clip-path="url(#clip0_3931_1198)">
<path d="M89.2886 173.616C88.3286 172.656 87.5216 171.716 86.5826 170.935C83.8826 168.698 82.6066 165.535 80.9946 162.588C80.2706 161.266 80.4776 159.78 80.5086 158.349C80.5146 158.101 80.8576 157.86 81.0576 157.6L81.9636 159.391V156.741C82.4947 156.547 82.9988 156.285 83.4636 155.963C83.661 155.799 83.8984 155.692 84.1513 155.651C84.4043 155.609 84.6636 155.636 84.9026 155.729C85.4228 155.946 85.9081 156.239 86.3426 156.598C86.1607 157.926 86.4926 159.273 87.2706 160.365C87.8776 160.201 88.5936 160.632 89.2016 160.009C89.3119 159.944 89.4365 159.906 89.5645 159.901C89.6925 159.895 89.8199 159.921 89.9356 159.976C91.4236 160.876 93.2506 161.347 94.0036 163.185C94.1386 163.517 94.2886 163.945 94.5606 164.092C94.9706 164.314 94.6026 165.007 95.3066 165.034C95.8856 165.056 95.5156 165.647 95.6196 165.968C95.7726 166.359 95.8976 166.76 95.9936 167.168C96.0304 167.553 96.0351 167.94 96.0076 168.325C94.5789 169.615 93.4863 171.233 92.8246 173.041L89.2896 173.617" fill="#2FACB2"/>
<path d="M40.8426 98.513C40.0156 99.075 39.2186 99.639 38.3876 100.146C38.3076 100.195 38.0186 99.903 37.7066 99.685C37.5558 100.002 37.3813 100.307 37.1846 100.597C36.928 100.887 36.6567 101.164 36.3716 101.427C35.8256 101.99 35.2986 102.617 34.4916 101.761C34.4296 101.696 34.2416 101.761 34.1146 101.747C33.2076 101.647 32.3426 101.875 31.4306 101.147C30.6051 100.63 29.8163 100.057 29.0696 99.432C28.3789 98.7944 27.7829 98.0613 27.2996 97.255C26.4666 96.0296 26.0684 94.5603 26.1686 93.082C26.3072 92.6377 26.4986 92.2117 26.7386 91.813L27.9386 92.8C28.2546 91.752 28.1896 90.534 29.1606 89.61L30.3726 90.513V89.101C31.583 88.7646 32.8283 88.5703 34.0836 88.522C34.7618 88.5339 35.4129 88.7899 35.9176 89.243C36.5858 89.7412 37.1942 90.315 37.7306 90.953C38.1706 91.615 38.7716 92.168 39.2306 92.853C39.8504 94.015 40.3741 95.2257 40.7966 96.473C40.9456 97.1434 40.9612 97.8365 40.8426 98.513Z" fill="#2FACB2"/>
<path d="M-3.78838 156.6L-6.44538 153.943C-6.48384 153.223 -6.47248 152.5 -6.41138 151.782C-6.37338 151.505 -5.97238 151.224 -5.67438 151.061C-5.56138 150.998 -5.27438 151.261 -5.05838 151.378C-4.77638 150.82 -4.61138 150.065 -3.65838 150.249C-3.47529 150.3 -3.27952 150.282 -3.10938 150.197C-2.91253 149.973 -2.66412 149.801 -2.38566 149.695C-2.1072 149.589 -1.8071 149.553 -1.51138 149.589C-0.384768 149.76 0.689399 150.18 1.63262 150.82C3.4003 152.213 4.80658 154.011 5.73262 156.063C6.25849 157.335 6.66035 158.655 6.93262 160.005C6.99956 160.352 6.96713 160.711 6.83905 161.041C6.71097 161.37 6.49244 161.657 6.20862 161.868C5.10862 162.64 4.04562 163.474 2.91962 164.208C2.51309 164.475 2.03361 164.609 1.54762 164.591C0.199102 164.577 -1.10275 164.095 -2.13547 163.228C-3.16819 162.361 -3.86767 161.162 -4.11438 159.836C-4.31427 159.4 -4.43386 158.933 -4.46738 158.455C-4.30887 157.814 -4.08085 157.192 -3.78738 156.6" fill="#2FACB2"/>
<path d="M118.826 136.238C118.877 135.88 118.926 135.522 118.985 135.127C119.126 135.227 119.251 135.27 119.285 135.349C119.857 136.535 120.328 137.767 120.694 139.033C120.878 139.851 121.112 140.633 120.32 141.272C119.781 141.706 120.328 142.953 119.115 142.883C118.543 143.802 117.627 143.71 116.75 143.647C116.596 144.242 116.403 144.826 116.171 145.395C115.88 145.995 114.95 146.167 113.953 145.882C113.725 145.817 113.505 145.596 113.297 145.614C111.682 145.755 111.685 145.767 111.005 144.493C110.632 143.877 110.294 143.241 109.993 142.587C109.855 142.208 109.638 141.863 109.356 141.575C109.073 141.287 108.732 141.064 108.356 140.92C107.776 140.676 107.268 140.288 106.88 139.793C106.492 139.298 106.237 138.712 106.14 138.091C106.068 137.515 106.157 136.93 106.396 136.4C106.635 135.871 107.015 135.418 107.495 135.091L109.202 137.322C109.202 136.384 109.192 135.753 109.202 135.122C109.212 134.491 109.283 134.622 110.275 134.176C110.985 133.857 112.012 134.244 112.42 133.261L114.52 133.181C115.813 133.13 116.96 133.271 117.562 134.708C117.908 135.276 118.334 135.791 118.827 136.238" fill="#2FACB2"/>
<path d="M123.805 202.384C121.594 201.473 120.643 199.784 119.698 198.134C118.859 196.687 118.124 195.184 117.498 193.634C116.878 192.086 115.805 190.621 116.284 188.674C117.684 189.649 117.567 191.512 118.91 192.758C118.664 190.792 117.641 189.265 117.131 187.192L118.406 187.892C118.464 187.549 118.53 187.192 118.592 186.842L120.436 186.492C120.617 186.781 120.854 187.208 121.136 187.603C122.236 189.142 122.236 189.135 124.236 189.844C124.457 189.933 124.667 190.047 124.864 190.182C126.458 191.06 127.774 192.367 128.664 193.955C129.062 194.716 129.308 195.547 129.388 196.403C129.414 196.582 129.498 196.748 129.628 196.875C129.689 196.928 129.736 196.996 129.763 197.072C129.79 197.149 129.797 197.231 129.783 197.311C129.769 197.391 129.734 197.466 129.682 197.529C129.63 197.591 129.563 197.639 129.487 197.668C128.615 198.16 128.238 199.127 127.464 199.706C127.323 199.828 127.21 199.979 127.132 200.148C127.055 200.318 127.015 200.502 127.015 200.689C126.874 201.022 126.642 201.308 126.345 201.513C126.047 201.718 125.698 201.834 125.337 201.847C125.023 201.774 124.82 201.198 124.393 201.623C124.178 201.863 123.98 202.117 123.799 202.384" fill="#2FACB2"/>
<path d="M60.9666 157.167L59.7826 157.367L60.2586 158.258L57.3896 161.128C57.2107 161.111 57.0305 161.111 56.8516 161.128C54.6756 161.528 53.2256 160.296 52.0176 158.806C51.0606 157.633 50.259 156.341 49.6326 154.963C49.1289 154.1 48.9629 153.082 49.1666 152.105L51.0056 156.136L51.3196 156.036C51.2945 155.786 51.2443 155.539 51.1696 155.3C50.7766 154.363 50.3286 153.45 49.9576 152.505C49.7936 152.087 49.4406 151.567 50.3386 151.373C50.6156 151.313 50.7776 150.716 50.9886 150.363C51.1736 150.053 51.3526 149.739 51.4996 149.489C52.4066 149.406 52.4156 150.199 52.9806 150.526L52.5446 148.871L53.6096 148.026C53.8546 148.269 54.1786 148.657 54.4796 147.942C54.8066 147.17 55.2896 146.869 56.0666 147.376C56.1376 147.422 56.2846 147.458 56.3316 147.419C57.2376 146.673 57.7706 147.419 58.1896 147.987C59.0794 149.408 59.7756 150.941 60.2596 152.547C60.4006 152.913 60.7076 153.771 59.6756 153.813C59.6176 153.813 59.5756 154.136 59.5216 154.313C59.7366 154.365 60.0666 154.531 60.1486 154.449C60.2053 154.362 60.2896 154.298 60.3877 154.266C60.4858 154.234 60.5918 154.236 60.6885 154.272C60.7852 154.308 60.8668 154.376 60.9201 154.464C60.9733 154.552 60.995 154.656 60.9816 154.759C60.6336 155.576 61.4396 156.366 60.9646 157.172" fill="#2FACB2"/>
<path d="M53.9436 115.762L54.7436 116.562C54.8066 116.013 54.8596 115.562 54.9176 115.067C55.7176 114.9 56.5386 114.689 57.3746 114.567C57.8858 114.491 58.4054 114.491 58.9166 114.567C59.3006 114.627 58.9996 115.343 59.7166 115.405C60.1796 115.446 60.5356 116.232 60.8646 116.78C61.1326 117.225 60.7316 118.187 61.7476 118.13C61.7822 118.759 61.8176 119.389 61.8536 120.02C61.8591 120.081 61.8678 120.142 61.8796 120.203L64.7626 123.086C65.0783 123.064 65.3953 123.067 65.7106 123.095C66.1926 123.173 66.7106 123.65 66.4636 123.946C65.9146 124.604 66.8986 125.059 66.5086 125.596C65.4959 126.008 64.3833 126.107 63.3136 125.882C63.6196 126.543 63.8856 127.119 64.2196 127.844C64.0246 128.031 63.7676 128.487 63.5146 128.486C61.9146 128.474 60.2336 128.879 58.8086 127.745C58.3918 127.479 58.0052 127.168 57.6556 126.819C56.9706 125.961 56.3556 125.045 55.7316 124.14C55.4236 123.694 55.1606 123.216 54.8646 122.76C54.4096 122.06 54.5456 121.044 53.7056 120.54C53.7054 119.745 53.4751 118.967 53.0426 118.3C52.9289 118.075 52.8619 117.83 52.8458 117.579C52.8298 117.327 52.8649 117.075 52.949 116.838C53.0331 116.601 53.1646 116.383 53.3354 116.198C53.5062 116.013 53.7127 115.865 53.9426 115.762" fill="#2FACB2"/>
<path d="M-5.93842 86.9997H-4.14842C-3.45642 86.9997 -2.70742 86.8847 -2.54842 87.8857C-2.5098 87.9601 -2.45275 88.0233 -2.38272 88.0693C-2.31269 88.1154 -2.23202 88.1427 -2.14842 88.1487C-1.32842 88.0267 -1.11642 88.8017 -0.614418 89.1427C0.744582 90.0667 0.944582 91.5907 1.28758 92.9987C1.48158 93.7987 1.22258 94.3787 0.307582 94.9257C-0.718418 95.5397 -2.00242 95.9257 -2.70742 97.0367C-3.32942 97.0487 -3.83842 98.0217 -4.56442 97.2427C-4.71143 97.1328 -4.89353 97.0806 -5.07642 97.0957C-7.52442 97.1427 -9.05542 95.7367 -10.3374 93.8617C-11.1001 92.9945 -11.6839 91.9851 -12.0554 90.8917C-12.1572 90.4095 -12.2241 89.9205 -12.2554 89.4287C-12.2664 89.2677 -12.1714 88.9897 -12.0554 88.9487C-11.0744 88.5967 -10.3554 87.7567 -9.40242 87.4137C-8.29458 87.0127 -7.10955 86.8711 -5.93842 86.9997Z" fill="#2FACB2"/>
<path d="M-9.04942 181.119L-8.14942 182.532C-8.05842 181.856 -8.02342 181.625 -7.99742 181.393C-7.91342 180.624 -7.91542 180.625 -6.94342 180.526C-6.82142 180.513 -6.63442 180.526 -6.59142 180.461C-6.4134 180.151 -6.13268 179.913 -5.7978 179.788C-5.46291 179.663 -5.09491 179.659 -4.75742 179.777C-3.94202 179.977 -3.17425 180.336 -2.49842 180.834C-0.230995 182.91 1.46258 185.535 2.41858 188.457C2.52095 189.008 2.52974 189.573 2.44458 190.127L1.70358 190.044C1.75258 190.744 1.59558 191.256 0.781582 191.42C0.635543 191.473 0.504612 191.561 0.400084 191.676C0.295555 191.791 0.220565 191.929 0.181581 192.08C0.0995817 192.918 -0.761418 192.51 -1.06142 192.946C-1.54142 192.183 -2.36142 193.107 -2.90542 192.561C-3.42242 192.039 -4.12942 191.636 -4.47042 191.023C-5.25871 189.687 -5.90075 188.27 -6.38542 186.797C-6.45822 186.468 -6.59648 186.156 -6.79197 185.881C-6.98746 185.606 -7.23621 185.374 -7.52342 185.197C-8.45371 184.692 -9.20034 183.905 -9.65642 182.95C-10.0394 182.118 -10.0564 182.126 -9.04942 181.119Z" fill="#2FACB2"/>
<path d="M27.3156 158.551C27.2902 158.318 27.2956 158.082 27.3316 157.851C27.3736 157.69 27.6486 157.581 27.6736 157.426C27.6986 157.271 27.5046 157.066 27.5046 156.879C27.5046 156.716 27.7326 156.516 27.6876 156.396C27.5882 156.167 27.4319 155.967 27.2336 155.816C27.0479 155.725 26.848 155.666 26.6426 155.642C26.7636 156.062 26.8606 156.401 26.9596 156.742C26.2696 156.324 25.5046 155.991 25.8436 154.984L26.7496 155.373C26.8606 154.166 25.7376 154.792 25.3046 154.219C25.9376 154.294 26.3596 153.858 26.9966 153.942C27.2966 153.981 27.6756 153.354 28.1286 152.925L30.2846 154.685L30.4926 153.417L33.3446 152.866C33.8446 153.499 34.2286 154.077 34.7006 154.574C35.1106 155.004 35.6736 155.29 36.0686 155.731C37.08 157.012 37.7902 158.505 38.1466 160.098C38.3106 160.654 38.4916 161.533 37.4296 161.682C37.4296 162.702 36.3586 162.855 35.8736 163.501C35.526 163.894 35.0539 164.157 34.536 164.244C34.0182 164.332 33.486 164.239 33.0286 163.981C31.4347 163.207 30.0614 162.044 29.0356 160.6C28.4796 159.938 27.8556 159.313 27.3156 158.552" fill="#2FACB2"/>
<path d="M59.2926 183.714L60.2546 184.041C60.3246 182.409 58.6386 181.951 58.4036 180.449C58.6904 180.543 58.9658 180.669 59.2246 180.824C59.5745 181.133 59.9083 181.46 60.2246 181.804C60.1848 181.215 59.9366 180.66 59.5246 180.238C60.5506 179 60.5506 179 61.7506 179C62.3324 179.845 63.0322 180.602 63.8286 181.248C64.7656 181.821 65.0416 182.798 65.7286 183.499C66.3609 184.231 66.88 185.054 67.2686 185.94C67.5412 186.413 67.6685 186.955 67.6346 187.5C67.5346 188.124 67.2686 189.041 66.8276 189.218C66.1016 189.51 66.2646 190.023 66.0356 190.465C65.9076 190.792 65.7016 191.084 65.4355 191.313C65.1694 191.543 64.8512 191.704 64.5086 191.783C64.0496 191.858 63.5036 192.208 63.1666 192.057C62.3217 191.712 61.5511 191.208 60.8966 190.572C59.7649 189.337 58.714 188.03 57.7506 186.66C57.5096 186.32 57.6236 185.723 57.5506 185.05L58.2806 185.638C58.1386 184.648 59.0036 184.309 59.2926 183.713" fill="#2FACB2"/>
<path d="M35.7596 125.104C36.4266 125.148 36.8876 124.804 37.4986 125.243L36.7186 125.512C36.9476 126.29 37.2026 127.062 37.3896 127.851C37.4376 128.051 37.3316 128.451 37.1896 128.511C36.4166 128.839 36.1766 129.678 35.5706 130.139C35.2619 130.327 34.9106 130.433 34.5496 130.448C34.3736 130.467 34.1666 130.202 33.9906 130.22C33.7597 130.293 33.5442 130.407 33.3546 130.558C33.0216 129.381 33.0386 129.334 31.7276 128.887C30.9426 128.619 30.7796 127.848 30.2276 127.363L29.8486 128.172C29.6486 127.965 29.3166 127.779 29.3166 127.594C29.3266 125.282 29.3246 125.23 28.2696 123.845C27.6746 124.89 28.8146 125.495 28.8766 126.517C28.5946 126.473 28.1766 126.506 28.1236 126.385C27.6296 125.18 26.8746 124.039 27.6496 122.596C27.8896 122.147 27.9336 121.912 28.4736 121.902C28.8309 121.86 29.1714 121.727 29.4616 121.514C30.2296 121.028 30.9706 120.499 31.7926 119.939L32.1166 120.416C32.7646 120.868 33.4406 119.651 33.5486 120.916C33.5796 121.276 34.3846 120.416 34.3846 121.36C34.3846 121.724 35.0536 122.089 35.3906 122.426L35.0376 123.339L35.3246 123.539L35.8746 122.494C36.2206 123.083 36.4226 123.424 36.6866 123.871L35.7596 125.104Z" fill="#2FACB2"/>
<path d="M20.5156 179.293L22.1206 179.763C22.2868 179.484 22.356 179.158 22.3175 178.836C22.279 178.514 22.1348 178.213 21.9076 177.982C22.5876 177.364 23.0406 178.296 23.7076 178.195C23.7686 177.855 23.8356 177.5 23.9026 177.153C24.4246 176.594 24.8956 177.625 25.5266 177.139C26.1576 176.653 26.3346 177.716 26.8836 177.839C27.2161 177.971 27.5006 178.201 27.6996 178.499C28.4286 179.393 28.5416 180.657 29.5236 181.437C29.7586 181.623 29.6336 182.264 29.6856 182.837C28.5976 182.303 28.5316 184.029 27.4856 183.62C27.1636 184.142 27.4676 185.087 26.2856 185.2L25.6866 184.182L25.2186 185.16C24.5586 185.317 24.2556 184.747 24.0386 184.385C23.3427 183.206 22.3576 182.224 21.1766 181.533C20.9795 181.436 20.8047 181.299 20.6631 181.132C20.5216 180.964 20.4164 180.768 20.3543 180.558C20.2921 180.347 20.2744 180.126 20.3022 179.908C20.3299 179.691 20.4026 179.481 20.5156 179.293Z" fill="#2FACB2"/>
<path d="M11.0756 127.741L8.61262 129.672H6.98262C6.34762 128.754 6.14162 127.547 5.20562 126.789C5.10862 125.513 4.22462 124.719 3.46162 123.828C3.21262 123.544 3.26162 123.005 3.16162 122.477C3.44162 122.399 3.71962 122.405 3.86162 122.269C5.35362 120.876 6.76162 121.659 7.94362 122.613C8.95377 123.464 9.8261 124.465 10.5296 125.583C10.8348 126.266 11.0196 126.996 11.0756 127.742" fill="#2FACB2"/>
</g>
<defs>
<clipPath id="clip0_3931_1198">
<rect width="192" height="196" fill="white" transform="translate(0.640625 0.234375)"/>
</clipPath>
</defs>
</svg>
