<svg width="83" height="19" viewBox="0 0 83 19" fill="none" xmlns="http://www.w3.org/2000/svg">
<path d="M0.997145 0.658019H12.1591V2.73526H7.75948V14.445H5.35072V2.73526H0.979156L0.997145 0.658019ZM11.6801 4.46361H13.7399V6.3939H13.7769C13.8562 6.109 13.987 5.84103 14.1629 5.60321C14.3505 5.33505 14.5801 5.09878 14.8428 4.90345C15.1055 4.68274 15.4042 4.50864 15.7257 4.38865C16.0345 4.25911 16.3657 4.19118 16.7006 4.18871C16.9576 4.18871 17.1416 4.20671 17.2336 4.20671C17.3302 4.22804 17.4286 4.24041 17.5275 4.24369V6.35592C17.37 6.32092 17.2103 6.29621 17.0496 6.28194C16.8911 6.26049 16.7315 6.24815 16.5716 6.24497C16.2106 6.24368 15.8534 6.31898 15.5237 6.4659C15.1948 6.61924 14.9008 6.83832 14.6598 7.10965C14.4027 7.42794 14.2037 7.789 14.0719 8.17627C13.9171 8.65078 13.8424 9.1477 13.8509 9.64672V14.39H11.6441L11.6801 4.46361ZM27.6405 14.446H25.4767V13.0465H25.4397C25.1583 13.5578 24.7373 13.9787 24.2259 14.2601C23.7317 14.5581 23.1661 14.717 22.589 14.7199C22.072 14.77 21.5502 14.709 21.0586 14.5409C20.5671 14.3728 20.1173 14.1015 19.7393 13.7452C19.0898 12.9086 18.775 11.8602 18.8564 10.8043V4.46162H21.0632V10.5834C20.9917 11.2452 21.1759 11.9093 21.5781 12.4397C21.7602 12.6285 21.9811 12.7756 22.2255 12.8708C22.47 12.9661 22.7321 13.0072 22.994 12.9915C23.3918 13.0037 23.7875 12.9283 24.1529 12.7706C24.4461 12.6436 24.7046 12.4482 24.9068 12.2008C25.1088 11.947 25.2531 11.6523 25.3298 11.3371C25.4212 10.983 25.4645 10.6182 25.4587 10.2525V4.46162H27.6655V14.444L27.6405 14.446ZM31.3922 11.2471C31.4012 11.5154 31.4724 11.7778 31.6001 12.0139C31.7278 12.25 31.9085 12.4532 32.1281 12.6076C32.5914 12.8744 33.1195 13.008 33.6539 12.9935C33.8882 12.9914 34.1221 12.973 34.3539 12.9385C34.6058 12.9078 34.853 12.846 35.0898 12.7546C35.3128 12.6759 35.5099 12.5376 35.6597 12.3547C35.8124 12.1628 35.8841 11.919 35.8597 11.675C35.8567 11.5434 35.8275 11.4138 35.7737 11.2936C35.72 11.1735 35.6428 11.0652 35.5467 10.9752C35.3275 10.7886 35.0788 10.6397 34.8108 10.5344C34.4758 10.4138 34.1313 10.3216 33.7809 10.2585C33.395 10.1845 33.009 10.0936 32.604 10.0016C32.1991 9.90963 31.7951 9.80168 31.4042 9.67072C31.0331 9.55294 30.6848 9.37277 30.3743 9.13793C30.0697 8.91892 29.8235 8.62852 29.6573 8.29223C29.4613 7.8989 29.3664 7.46289 29.3814 7.02368C29.3588 6.53823 29.4996 6.05922 29.7813 5.66318C30.0455 5.29479 30.3915 4.99266 30.7922 4.78051C31.2178 4.55054 31.6771 4.38928 32.1531 4.30269C32.6201 4.21665 33.094 4.17349 33.5689 4.17374C34.064 4.17131 34.5577 4.22699 35.0398 4.33966C35.4922 4.43679 35.9226 4.61747 36.3087 4.87246C36.6913 5.11386 37.0124 5.44108 37.2466 5.82813C37.5117 6.25739 37.6752 6.74153 37.7245 7.2436H35.4248C35.3979 7.02187 35.3189 6.80967 35.1943 6.62429C35.0697 6.43891 34.903 6.28564 34.7078 6.177C34.2992 5.9869 33.8526 5.89254 33.402 5.9011C33.255 5.9011 33.053 5.91908 32.85 5.93808C32.6434 5.96747 32.4402 6.01668 32.2431 6.08503C32.0644 6.15631 31.9019 6.26269 31.7651 6.3979C31.6981 6.46899 31.6458 6.55273 31.6115 6.64421C31.5772 6.73569 31.5614 6.83309 31.5651 6.93073C31.5598 7.05186 31.5819 7.17261 31.6297 7.28405C31.6775 7.3955 31.7497 7.49476 31.8411 7.57447C32.0605 7.75633 32.3094 7.89935 32.577 7.99732C32.912 8.11785 33.2565 8.21014 33.6069 8.27322C33.9929 8.3472 34.3979 8.43918 34.8068 8.53015C35.2158 8.62112 35.5977 8.73007 35.9837 8.86102C36.3564 8.97486 36.7054 9.15538 37.0136 9.39382C37.3145 9.61485 37.5652 9.8969 37.7495 10.2215C37.9436 10.6023 38.0386 11.0259 38.0255 11.4531C38.0446 11.9841 37.9054 12.5088 37.6255 12.9605C37.3524 13.3683 36.9951 13.7129 36.5776 13.9712C36.1307 14.2313 35.6474 14.4234 35.1438 14.541C34.6305 14.6555 34.1068 14.7171 33.5809 14.7249C32.9914 14.7298 32.4039 14.6554 31.8341 14.504C31.3336 14.3724 30.8598 14.1546 30.4342 13.8602C30.0477 13.5751 29.7331 13.2037 29.5153 12.7756C29.2774 12.2952 29.1515 11.7672 29.1474 11.2312H31.3762V11.2492L31.3922 11.2471ZM38.6554 4.46361H40.3283V1.44872H42.5351V4.44762H44.5209V6.08402H42.5351V11.4151C42.5365 11.6179 42.5488 11.8204 42.5721 12.0219C42.5901 12.1692 42.6337 12.3123 42.701 12.4447C42.7786 12.5586 42.8872 12.6477 43.014 12.7016C43.2027 12.7678 43.402 12.799 43.602 12.7936C43.7555 12.7968 43.9091 12.7907 44.0619 12.7756C44.2165 12.7599 44.3701 12.7352 44.5219 12.7016V14.411C44.2829 14.448 44.0439 14.466 43.8049 14.485C43.5673 14.5161 43.3276 14.5285 43.088 14.522C42.6157 14.5365 42.1439 14.4806 41.6881 14.356C41.3777 14.2657 41.0937 14.1018 40.8602 13.8782C40.6597 13.6543 40.5217 13.3816 40.4603 13.0875C40.3849 12.7255 40.3418 12.3575 40.3313 11.9879V6.10501H38.6584V4.46861L38.6554 4.46361ZM46.0657 4.46361H48.1435V5.82413H48.1805C48.4563 5.2743 48.9098 4.83365 49.4674 4.57358C50.0311 4.31252 50.646 4.18068 51.2672 4.18771C51.9775 4.16524 52.6831 4.3101 53.327 4.61056C53.8963 4.86746 54.3948 5.2585 54.7799 5.75016C55.1787 6.25011 55.4725 6.82537 55.6438 7.44153C56.0232 8.74874 56.036 10.1351 55.6808 11.4491C55.5152 12.0478 55.2476 12.6135 54.8898 13.1215C54.5372 13.6052 54.0781 14.0016 53.548 14.28C52.9573 14.5848 52.2996 14.7364 51.6352 14.7209C51.3145 14.7176 50.9947 14.6868 50.6792 14.6289C50.3631 14.5735 50.0547 14.4809 49.7603 14.353C49.468 14.2263 49.1955 14.058 48.9514 13.8532C48.7052 13.6567 48.4939 13.4202 48.3265 13.1535H48.2895V18.1356H46.0847V4.46361H46.0657ZM53.7699 9.46179C53.7734 9.01992 53.7114 8.57998 53.586 8.15626C53.4803 7.75229 53.2995 7.37183 53.053 7.03469C52.821 6.71589 52.5272 6.44698 52.1891 6.24396C51.8225 6.0409 51.4082 5.93943 50.9892 5.95007C50.5875 5.92399 50.1856 5.99761 49.8193 6.16434C49.453 6.33107 49.1335 6.58576 48.8894 6.90574C48.3925 7.66943 48.1477 8.56969 48.1895 9.47978C48.1809 9.95283 48.2429 10.4245 48.3735 10.8793C48.4824 11.2789 48.6701 11.6527 48.9254 11.9789C49.1618 12.2862 49.4633 12.5375 49.8083 12.7146C50.1789 12.9054 50.5915 13.0003 51.0082 12.9905C51.4517 13.0031 51.8903 12.895 52.2771 12.6776C52.6148 12.4741 52.9085 12.2053 53.141 11.8869C53.37 11.5467 53.5322 11.1661 53.619 10.7653C53.7157 10.338 53.7676 9.90184 53.7739 9.4638L53.7699 9.46179ZM57.6496 0.656006H59.8563V2.73325H57.6496V0.656006ZM57.6496 4.46162H59.8563V14.444H57.6496V4.46162ZM61.8231 0.656006H64.0299V14.443H61.8231V0.656006ZM70.7593 14.7189C70.0282 14.7354 69.3018 14.5992 68.6265 14.319C68.0321 14.0666 67.4943 13.6978 67.0446 13.2344C66.6076 12.7502 66.2757 12.1808 66.0697 11.562C65.8379 10.8813 65.72 10.167 65.7208 9.44781C65.7104 8.73282 65.8286 8.02178 66.0697 7.34857C66.28 6.73173 66.6114 6.16312 67.0446 5.67618C67.4859 5.20301 68.026 4.83273 68.6265 4.59158C69.3044 4.32009 70.029 4.18421 70.7593 4.1917C71.4903 4.17518 72.2167 4.31139 72.8921 4.59158C73.4901 4.83735 74.0292 5.20699 74.4739 5.67618C74.9109 6.16038 75.2428 6.7298 75.4488 7.34857C75.6811 8.02405 75.799 8.73354 75.7978 9.44781C75.8092 10.1678 75.691 10.8839 75.4488 11.562C75.2313 12.1755 74.9006 12.7428 74.4739 13.2344C74.0326 13.7076 73.4926 14.0779 72.8921 14.319C72.2154 14.5927 71.4911 14.7293 70.7613 14.7209L70.7593 14.7189ZM70.7593 12.9725C71.2023 12.9805 71.6397 12.8727 72.0282 12.6596C72.3801 12.4606 72.682 12.184 72.9111 11.8509C73.1484 11.5109 73.3229 11.131 73.426 10.7293C73.6467 9.89192 73.6467 9.01167 73.426 8.17426C73.3265 7.77134 73.1518 7.39081 72.9111 7.05266C72.6767 6.72899 72.3756 6.45936 72.0282 6.26196C71.6388 6.0511 71.202 5.9434 70.7593 5.94909C70.3163 5.94113 69.8789 6.04897 69.4904 6.26196C69.1433 6.45994 68.8424 6.72946 68.6075 7.05266C68.3668 7.39081 68.1921 7.77134 68.0925 8.17426C67.8719 9.01167 67.8719 9.89192 68.0925 10.7293C68.1921 11.1322 68.3668 11.5128 68.6075 11.8509C68.8412 12.1799 69.1422 12.4555 69.4904 12.6596C69.8768 12.8799 70.3167 12.9889 70.7613 12.9745L70.7593 12.9725ZM76.4587 4.46162H78.1315V1.44673H80.3383V4.44564H82.3241V6.08204H80.3413V11.4131C80.3428 11.6159 80.3551 11.8184 80.3783 12.0199C80.3963 12.1673 80.44 12.3104 80.5073 12.4427C80.5848 12.5566 80.6935 12.6458 80.8203 12.6996C81.009 12.7659 81.2083 12.797 81.4082 12.7916C81.5617 12.7948 81.7154 12.7888 81.8682 12.7736C82.0228 12.7579 82.1764 12.7332 82.3281 12.6996V14.409C82.0892 14.446 81.8502 14.464 81.6112 14.483C81.3736 14.5141 81.1339 14.5264 80.8943 14.5199C80.422 14.5345 79.9502 14.4786 79.4944 14.354C79.184 14.2637 78.9 14.0998 78.6665 13.8762C78.466 13.6523 78.328 13.3796 78.2665 13.0855C78.1912 12.7234 78.1481 12.3555 78.1375 11.9859V6.10302H76.4617V4.46663L76.4587 4.46162Z" fill="black"/>
</svg>
